<svg width="70" height="19" viewBox="0 0 70 19" fill="none" xmlns="http://www.w3.org/2000/svg">
<path fill-rule="evenodd" clip-rule="evenodd" d="M47.64 4.112V0.224001H56.316L61.104 0.223996L69.672 0.224001V4.112H47.64ZM49.98 12.356C49.98 8.54 53.688 5.84 58.692 5.84C63.732 5.84 67.44 8.54 67.44 12.356C67.44 16.172 63.732 18.872 58.692 18.872C53.688 18.872 49.98 16.172 49.98 12.356ZM62.544 12.356C62.544 10.7 60.888 9.836 58.692 9.836C56.496 9.836 54.876 10.7 54.876 12.356C54.876 14.012 56.496 14.876 58.692 14.876C60.888 14.876 62.544 14.012 62.544 12.356ZM24.144 0V14.256V15.444V18.036H45.204V14.256H28.968V3.816H44.952V0H24.144ZM0 0.108001V3.924H16.38V18.036H21.132V0.108001H0Z" fill="#230653"/>
</svg>
