<svg width="30" height="30" viewBox="0 0 30 30" fill="none" xmlns="http://www.w3.org/2000/svg">
<path d="M0 3.75C0 5.82107 1.67893 7.5 3.75 7.5C5.82107 7.5 7.5 5.82107 7.5 3.75C7.5 1.67893 5.82107 0 3.75 0C1.67893 0 0 1.67893 0 3.75ZM11.25 30H18.75V22.5H11.25V30ZM0 30H7.5V22.5H0V30ZM0 18.75H7.5V11.25H0V18.75ZM11.25 15C11.25 17.0711 12.9289 18.75 15 18.75C17.0711 18.75 18.75 17.0711 18.75 15C18.75 12.9289 17.0711 11.25 15 11.25C12.9289 11.25 11.25 12.9289 11.25 15ZM22.5 0V7.5H30V0H22.5ZM11.25 7.5H18.75V0H11.25V7.5ZM22.5 18.75H30V11.25H22.5V18.75ZM22.5 26.25C22.5 28.3211 24.1789 30 26.25 30C28.3211 30 30 28.3211 30 26.25C30 24.1789 28.3211 22.5 26.25 22.5C24.1789 22.5 22.5 24.1789 22.5 26.25Z" fill="#230653"/>
</svg>
